<?xml version="1.0" encoding="UTF-8"?>
<svg id="Layer_2" data-name="Layer 2" xmlns="http://www.w3.org/2000/svg" viewBox="0 0 589.74 268.73">
  <defs>
    <style>
      .cls-1 {
        fill: #c1a780;
      }
    </style>
  </defs>
  <g id="Structure">
    <path class="cls-1" d="M589.72,135.51c-.57,35.3-14.65,68.5-39.65,93.5-25.61,25.61-59.59,39.72-95.68,39.72h0c-35.74,0-69.3-13.88-94.48-39.07l-.08-.08v39.15h-42.11v-82.31l1.96-1.95c15.16-15.08,39.66-15.04,54.77.07l15.29,15.29c17.22,17.22,40.18,26.7,64.65,26.71h0c24.82,0,48.21-9.72,65.85-27.36,35.64-35.63,36.44-93,2.2-128.93-15.28-17.87-38.38-28.07-63.79-28.07s-47.79,8.99-66.32,25.32l-1,.88-66.04,66.04-30.41,30.22-11.78,11.78v92.3h-42.11v-50.19l-11.13,11.13c-25.19,25.18-58.74,39.06-94.48,39.06s-70.08-14.11-95.69-39.72C14.67,204.01.59,170.8.02,135.51c-.57-35.01,12.2-68.18,35.98-93.54C59.26,15.28,93.85,0,131.09,0c34.51,0,67.96,12.73,94.2,35.84l2,1.77,55.79,52.36-42.71,39.1h0c.69-12.5-2.7-23.26-11.6-31.75l-30.36-28.94-1-.88c-18.53-16.33-42.09-25.32-66.32-25.32-25.42,0-48.52,10.2-63.79,28.07-34.24,35.93-33.44,93.29,2.2,128.93,17.64,17.65,41.03,27.36,65.86,27.36s47.43-9.49,64.65-26.71l64.93-64.93,29.93-29.73,67.57-67.57,2-1.76C390.68,12.73,424.13,0,458.65,0c37.24,0,71.83,15.28,95.1,41.97,23.77,25.36,36.54,58.53,35.98,93.54Z"/>
  </g>
</svg>