<?xml version="1.0" encoding="UTF-8"?>
<svg id="Layer_2" data-name="Layer 2" xmlns="http://www.w3.org/2000/svg" viewBox="0 0 1209.19 87.94">
  <defs>
    <style>
      .cls-1 {
        fill: #4a4a49;
      }
    </style>
  </defs>
  <g id="Structure">
    <g>
      <path class="cls-1" d="M8.83,87.94H0L39.52.49h9.28l39.52,87.45h-8.9l-11.25-25.24H20.14l-11.31,25.24ZM23.13,55.82h42.06L44.16,8.77l-21.03,47.05Z"/>
      <path class="cls-1" d="M128.16,87.94h-8.39V7.37h-31.45V.49h71.36v6.88h-31.52v80.57Z"/>
      <path class="cls-1" d="M173.02,87.94V.49h57.38v6.88h-48.99v32.59h46.38v6.88h-46.38v34.22h49.62v6.88h-58.01Z"/>
      <path class="cls-1" d="M308.55,87.94h-57.19V.49h8.39v80.57h48.8v6.88Z"/>
      <path class="cls-1" d="M332.82,87.94h-8.39V.49h8.39v87.45Z"/>
      <path class="cls-1" d="M353.79,87.94V.49h57.38v6.88h-48.99v32.59h46.38v6.88h-46.38v34.22h49.62v6.88h-58.01Z"/>
      <path class="cls-1" d="M498.28,87.94h-9.34l-23.76-36.9h-24.65v36.9h-8.39V.49h31.9c6.52,0,12.16,1.03,16.9,3.09,4.74,2.06,8.41,4.98,10.99,8.75,2.58,3.77,3.87,8.26,3.87,13.47,0,6.33-1.93,11.61-5.78,15.83-3.86,4.22-9.19,7.01-16.01,8.37l24.27,37.95ZM440.52,44.16h23.06c7.29,0,13.05-1.64,17.28-4.93,4.24-3.28,6.35-7.76,6.35-13.44s-2.11-10.21-6.32-13.5c-4.21-3.28-9.99-4.93-17.31-4.93h-23.06v36.79Z"/>
      <path class="cls-1" d="M526.99,87.94V0h28.3c7.75,0,14.38,1.08,19.87,3.25,5.49,2.17,9.69,5.27,12.59,9.29,2.9,4.03,4.35,8.85,4.35,14.48s-1.45,10.42-4.35,14.48c-2.9,4.06-7.09,7.19-12.59,9.38-5.5,2.19-12.12,3.28-19.87,3.28h-19.87v33.77h-8.43ZM535.43,47.26h19.23c9.2,0,16.3-1.8,21.31-5.39,5-3.6,7.51-8.54,7.51-14.83s-2.5-11.22-7.51-14.77c-5.01-3.56-12.11-5.33-21.31-5.33h-19.23v40.33Z"/>
      <path class="cls-1" d="M676.31,87.94h-9.39l-23.9-37.11h-24.79v37.11h-8.43V0h32.07c6.56,0,12.23,1.04,17,3.11,4.77,2.07,8.45,5,11.05,8.79,2.6,3.79,3.9,8.31,3.9,13.54,0,6.37-1.94,11.68-5.81,15.92-3.88,4.24-9.24,7.05-16.1,8.41l24.41,38.16ZM618.23,43.92h23.19c7.33,0,13.12-1.65,17.38-4.95,4.26-3.3,6.39-7.81,6.39-13.51s-2.12-10.27-6.36-13.57c-4.24-3.3-10.04-4.95-17.41-4.95h-23.19v36.99Z"/>
      <path class="cls-1" d="M729.2,87.62c-6.89,0-13.23-1.09-19.02-3.25-5.79-2.17-10.82-5.23-15.08-9.18-4.26-3.95-7.57-8.59-9.91-13.92-2.35-5.33-3.52-11.14-3.52-17.43s1.17-12.15,3.52-17.48c2.34-5.33,5.65-9.96,9.91-13.89,4.26-3.93,9.29-6.98,15.08-9.15,5.79-2.17,12.13-3.25,19.02-3.25s13.16,1.08,18.93,3.25c5.77,2.17,10.79,5.22,15.05,9.15,4.26,3.93,7.56,8.56,9.91,13.89,2.34,5.33,3.52,11.16,3.52,17.48s-1.17,12.1-3.52,17.43c-2.35,5.33-5.65,9.97-9.91,13.92-4.26,3.95-9.28,7.01-15.05,9.18-5.77,2.17-12.08,3.25-18.93,3.25ZM729.14,81c5.67,0,10.89-.93,15.66-2.78s8.92-4.45,12.45-7.8c3.53-3.35,6.26-7.29,8.2-11.81,1.94-4.53,2.9-9.45,2.9-14.76s-.97-10.23-2.9-14.76c-1.94-4.53-4.67-8.46-8.2-11.81-3.53-3.35-7.68-5.95-12.45-7.8-4.77-1.85-9.99-2.78-15.66-2.78s-10.83.93-15.6,2.78c-4.77,1.85-8.92,4.45-12.45,7.8-3.53,3.35-6.27,7.28-8.23,11.79-1.96,4.51-2.94,9.44-2.94,14.79s.98,10.28,2.94,14.79c1.96,4.51,4.7,8.44,8.23,11.79,3.53,3.35,7.68,5.95,12.45,7.8,4.77,1.85,9.97,2.78,15.6,2.78Z"/>
      <path class="cls-1" d="M863.04,16.62c-3.59-3.22-7.79-5.68-12.6-7.38-4.81-1.7-9.93-2.55-15.35-2.55s-10.88.91-15.63,2.72c-4.75,1.82-8.87,4.39-12.36,7.72-3.49,3.33-6.19,7.27-8.1,11.81-1.92,4.55-2.88,9.53-2.88,14.96s.94,10.29,2.81,14.82c1.88,4.53,4.51,8.46,7.89,11.79,3.38,3.33,7.39,5.91,12.02,7.75,4.63,1.83,9.7,2.75,15.2,2.75,5.22,0,10.05-.82,14.5-2.47,4.44-1.65,8.35-3.97,11.71-6.96,3.36-2.99,6.05-6.56,8.04-10.69,2-4.13,3.14-8.65,3.43-13.55h-35.91v-6.01h43.19l.24,2.69c0,6.4-1.1,12.25-3.3,17.57-2.2,5.31-5.31,9.92-9.33,13.81-4.02,3.89-8.77,6.9-14.25,9.04-5.49,2.13-11.51,3.2-18.08,3.2s-12.86-1.09-18.5-3.25c-5.65-2.17-10.56-5.22-14.74-9.15-4.18-3.93-7.42-8.54-9.73-13.84-2.3-5.29-3.46-11.07-3.46-17.31s1.17-12.16,3.52-17.51c2.35-5.35,5.64-10.01,9.88-13.98,4.24-3.96,9.24-7.04,14.99-9.23,5.75-2.19,12.01-3.28,18.78-3.28,6.4,0,12.47,1.01,18.2,3.03,5.73,2.02,10.82,4.92,15.26,8.7l-5.44,4.83Z"/>
      <path class="cls-1" d="M894.58,87.94V0h57.7v6.92h-49.27v32.77h46.65v6.92h-46.65v34.41h49.9v6.92h-58.34Z"/>
      <path class="cls-1" d="M1005.76,87.94h-8.43V6.92h-31.63V0h71.76v6.92h-31.69v81.02Z"/>
      <path class="cls-1" d="M1083.27,87.94h-8.43V6.92h-31.63V0h71.76v6.92h-31.69v81.02Z"/>
      <path class="cls-1" d="M1161.79,87.62c-6.89,0-13.23-1.09-19.02-3.25-5.79-2.17-10.82-5.23-15.08-9.18-4.26-3.95-7.56-8.59-9.91-13.92-2.34-5.33-3.52-11.14-3.52-17.43s1.17-12.15,3.52-17.48c2.35-5.33,5.65-9.96,9.91-13.89,4.26-3.93,9.29-6.98,15.08-9.15,5.79-2.17,12.13-3.25,19.02-3.25s13.16,1.08,18.93,3.25c5.77,2.17,10.79,5.22,15.05,9.15,4.26,3.93,7.56,8.56,9.91,13.89,2.34,5.33,3.52,11.16,3.52,17.48s-1.17,12.1-3.52,17.43c-2.35,5.33-5.65,9.97-9.91,13.92-4.26,3.95-9.28,7.01-15.05,9.18-5.77,2.17-12.08,3.25-18.93,3.25ZM1161.73,81c5.67,0,10.89-.93,15.66-2.78,4.77-1.85,8.92-4.45,12.45-7.8,3.53-3.35,6.26-7.29,8.2-11.81,1.94-4.53,2.9-9.45,2.9-14.76s-.97-10.23-2.9-14.76c-1.94-4.53-4.67-8.46-8.2-11.81-3.53-3.35-7.68-5.95-12.45-7.8-4.77-1.85-9.99-2.78-15.66-2.78s-10.83.93-15.6,2.78c-4.77,1.85-8.92,4.45-12.45,7.8-3.53,3.35-6.27,7.28-8.23,11.79-1.96,4.51-2.94,9.44-2.94,14.79s.98,10.28,2.94,14.79c1.96,4.51,4.7,8.44,8.23,11.79,3.53,3.35,7.68,5.95,12.45,7.8,4.77,1.85,9.97,2.78,15.6,2.78Z"/>
    </g>
  </g>
</svg>